<?xml version="1.0" standalone="no"?>
<!DOCTYPE svg PUBLIC "-//W3C//DTD SVG 20010904//EN"
        "http://www.w3.org/TR/2001/REC-SVG-20010904/DTD/svg10.dtd">
<svg version="1.0" xmlns="http://www.w3.org/2000/svg"
     width="256.000000pt" height="256.000000pt" viewBox="0 0 256.000000 256.000000"
     preserveAspectRatio="xMidYMid meet">

    <g transform="translate(0.000000,256.000000) scale(0.100000,-0.100000)"
       fill="#3598DB" stroke="none">
        <path d="M0 1280 l0 -1280 1280 0 1280 0 0 1280 0 1280 -1280 0 -1280 0 0
-1280z m1565 709 c122 -29 230 -87 317 -169 l73 -70 -75 -70 c-41 -39 -99 -91
-127 -117 l-53 -45 -60 55 c-100 93 -236 127 -370 93 -120 -31 -205 -107 -251
-224 -32 -81 -32 -243 0 -324 46 -117 131 -193 251 -224 134 -34 270 0 370 93
l60 55 53 -45 c28 -26 86 -78 127 -117 l75 -70 -72 -68 c-117 -113 -264 -176
-442 -191 -349 -30 -634 117 -776 400 -55 108 -69 176 -69 329 0 194 37 310
147 455 172 227 504 330 822 254z"/>
    </g>
</svg>