<svg width="80" height="80" viewBox="0 0 80 80" fill="none" xmlns="http://www.w3.org/2000/svg">
    <path fill-rule="evenodd" clip-rule="evenodd" d="M52.1975 7.69226H40.1096L38.6792 18.1604C35.8192 19.1389 33.2125 20.6635 30.9833 22.6097L21.1963 18.6119L15.1523 29.0803L23.5045 35.5545C23.2238 36.993 23.0767 38.4793 23.0767 40C23.0767 41.5206 23.2237 43.0069 23.5045 44.4454L15.1523 50.9196L21.1963 61.388L30.9833 57.3902C33.2124 59.3364 35.8192 60.861 38.6792 61.8396L40.1096 72.3076H52.1975L53.628 61.8396C56.488 60.861 59.0947 59.3364 61.3239 57.3902L71.1109 61.388L77.1548 50.9196L68.8027 44.4454C69.0834 43.0069 69.2305 41.5206 69.2305 40C69.2305 38.4793 69.0834 36.993 68.8027 35.5545L77.1548 29.0803L71.1109 18.6119L61.3239 22.6097C59.0947 20.6635 56.488 19.1389 53.628 18.1604L52.1975 7.69226ZM46.1536 48.4615C50.8268 48.4615 54.6151 44.6731 54.6151 39.9999C54.6151 35.3268 50.8268 31.5384 46.1536 31.5384C41.4804 31.5384 37.6921 35.3268 37.6921 39.9999C37.6921 44.6731 41.4804 48.4615 46.1536 48.4615Z" fill="#D9F3FF"/>
    <mask id="path-3-inside-1" fill="white">
        <path fill-rule="evenodd" clip-rule="evenodd" d="M46.0442 7.69226H33.9563L32.5259 18.1604C29.6659 19.1389 27.0591 20.6635 24.83 22.6097L15.043 18.6119L8.99902 29.0803L17.3511 35.5545C17.0704 36.993 16.9233 38.4793 16.9233 40C16.9233 41.5206 17.0704 43.0069 17.3511 44.4454L8.99902 50.9196L15.043 61.388L24.83 57.3902C27.0591 59.3364 29.6659 60.861 32.5259 61.8396L33.9563 72.3076H46.0442L47.4746 61.8396C50.3347 60.861 52.9414 59.3364 55.1706 57.3902L64.9576 61.388L71.0015 50.9196L62.6494 44.4454C62.9301 43.0069 63.0772 41.5206 63.0772 40C63.0772 38.4793 62.9301 36.993 62.6494 35.5545L71.0015 29.0803L64.9576 18.6119L55.1705 22.6097C52.9414 20.6635 50.3346 19.1389 47.4746 18.1604L46.0442 7.69226ZM40.0002 48.4615C44.6734 48.4615 48.4618 44.6731 48.4618 39.9999C48.4618 35.3268 44.6734 31.5384 40.0002 31.5384C35.3271 31.5384 31.5387 35.3268 31.5387 39.9999C31.5387 44.6731 35.3271 48.4615 40.0002 48.4615Z"/>
    </mask>
    <path d="M33.9563 7.69226V5.69226C32.9564 5.69226 32.1101 6.43076 31.9747 7.42149L33.9563 7.69226ZM46.0442 7.69226L48.0258 7.42149C47.8904 6.43076 47.0442 5.69226 46.0442 5.69226V7.69226ZM32.5259 18.1604L33.1733 20.0527C33.8889 19.8078 34.4051 19.1804 34.5075 18.4311L32.5259 18.1604ZM24.83 22.6097L24.0737 24.4611C24.7739 24.7472 25.5756 24.6137 26.1454 24.1162L24.83 22.6097ZM15.043 18.6119L15.7993 16.7604C14.8736 16.3823 13.8109 16.7459 13.3109 17.6119L15.043 18.6119ZM8.99902 29.0803L7.26697 28.0803C6.76701 28.9463 6.98343 30.0484 7.77373 30.661L8.99902 29.0803ZM17.3511 35.5545L19.3141 35.9375C19.4588 35.1961 19.1734 34.4365 18.5764 33.9737L17.3511 35.5545ZM17.3511 44.4454L18.5764 46.0261C19.1734 45.5634 19.4588 44.8037 19.3141 44.0624L17.3511 44.4454ZM8.99902 50.9196L7.77373 49.3388C6.98343 49.9515 6.76701 51.0536 7.26697 51.9196L8.99902 50.9196ZM15.043 61.388L13.3109 62.388C13.8109 63.254 14.8736 63.6176 15.7993 63.2395L15.043 61.388ZM24.83 57.3902L26.1453 55.8836C25.5756 55.3862 24.7739 55.2527 24.0737 55.5387L24.83 57.3902ZM32.5259 61.8396L34.5075 61.5688C34.4051 60.8195 33.8889 60.1921 33.1733 59.9473L32.5259 61.8396ZM33.9563 72.3076L31.9747 72.5784C32.1101 73.5691 32.9564 74.3076 33.9563 74.3076V72.3076ZM46.0442 72.3076V74.3076C47.0442 74.3076 47.8904 73.5691 48.0258 72.5784L46.0442 72.3076ZM47.4746 61.8396L46.8272 59.9473C46.1117 60.1921 45.5954 60.8195 45.4931 61.5688L47.4746 61.8396ZM55.1706 57.3902L55.9269 55.5387C55.2266 55.2527 54.425 55.3862 53.8552 55.8836L55.1706 57.3902ZM64.9576 61.388L64.2013 63.2395C65.1269 63.6176 66.1896 63.254 66.6896 62.388L64.9576 61.388ZM71.0015 50.9196L72.7336 51.9196C73.2335 51.0536 73.0171 49.9515 72.2268 49.3388L71.0015 50.9196ZM62.6494 44.4454L60.6864 44.0624C60.5417 44.8037 60.8271 45.5634 61.4241 46.0261L62.6494 44.4454ZM62.6494 35.5545L61.4241 33.9737C60.8271 34.4365 60.5417 35.1961 60.6864 35.9375L62.6494 35.5545ZM71.0015 29.0803L72.2268 30.661C73.0171 30.0484 73.2335 28.9463 72.7336 28.0803L71.0015 29.0803ZM64.9576 18.6119L66.6896 17.6119C66.1896 16.7459 65.1269 16.3823 64.2013 16.7604L64.9576 18.6119ZM55.1705 22.6097L53.8552 24.1163C54.425 24.6137 55.2266 24.7472 55.9268 24.4611L55.1705 22.6097ZM47.4746 18.1604L45.4931 18.4311C45.5954 19.1804 46.1117 19.8078 46.8272 20.0527L47.4746 18.1604ZM33.9563 9.69226H46.0442V5.69226H33.9563V9.69226ZM34.5075 18.4311L35.9379 7.96304L31.9747 7.42149L30.5443 17.8896L34.5075 18.4311ZM26.1454 24.1162C28.1826 22.3376 30.5634 20.9457 33.1733 20.0527L31.8784 16.2681C28.7684 17.3322 25.9357 18.9893 23.5146 21.1031L26.1454 24.1162ZM14.2867 20.4634L24.0737 24.4611L25.5863 20.7582L15.7993 16.7604L14.2867 20.4634ZM10.7311 30.0803L16.775 19.6119L13.3109 17.6119L7.26697 28.0803L10.7311 30.0803ZM18.5764 33.9737L10.2243 27.4996L7.77373 30.661L16.1259 37.1352L18.5764 33.9737ZM18.9233 40C18.9233 38.6085 19.0579 37.2505 19.3141 35.9375L15.3882 35.1714C15.083 36.7354 14.9233 38.35 14.9233 40H18.9233ZM19.3141 44.0624C19.0579 42.7494 18.9233 41.3914 18.9233 40H14.9233C14.9233 41.6499 15.083 43.2644 15.3882 44.8285L19.3141 44.0624ZM10.2243 52.5003L18.5764 46.0261L16.1259 42.8647L7.77373 49.3388L10.2243 52.5003ZM16.775 60.388L10.7311 49.9196L7.26697 51.9196L13.3109 62.388L16.775 60.388ZM24.0737 55.5387L14.2867 59.5365L15.7993 63.2395L25.5863 59.2417L24.0737 55.5387ZM33.1733 59.9473C30.5634 59.0542 28.1826 57.6623 26.1453 55.8836L23.5146 58.8968C25.9356 61.0105 28.7684 62.6677 31.8784 63.7318L33.1733 59.9473ZM35.9379 72.0369L34.5075 61.5688L30.5443 62.1103L31.9747 72.5784L35.9379 72.0369ZM46.0442 70.3076H33.9563V74.3076H46.0442V70.3076ZM45.4931 61.5688L44.0626 72.0369L48.0258 72.5784L49.4562 62.1103L45.4931 61.5688ZM53.8552 55.8836C51.8179 57.6623 49.4371 59.0542 46.8272 59.9473L48.1221 63.7318C51.2322 62.6677 54.0649 61.0105 56.4859 58.8968L53.8552 55.8836ZM65.7139 59.5365L55.9269 55.5387L54.4143 59.2417L64.2013 63.2395L65.7139 59.5365ZM69.2695 49.9196L63.2255 60.388L66.6896 62.388L72.7336 51.9196L69.2695 49.9196ZM61.4241 46.0261L69.7762 52.5003L72.2268 49.3388L63.8747 42.8647L61.4241 46.0261ZM61.0772 40C61.0772 41.3914 60.9426 42.7494 60.6864 44.0624L64.6124 44.8285C64.9176 43.2644 65.0772 41.6499 65.0772 40H61.0772ZM60.6864 35.9375C60.9426 37.2505 61.0772 38.6085 61.0772 40H65.0772C65.0772 38.35 64.9176 36.7354 64.6124 35.1714L60.6864 35.9375ZM69.7762 27.4996L61.4241 33.9737L63.8747 37.1352L72.2268 30.661L69.7762 27.4996ZM63.2255 19.6119L69.2695 30.0803L72.7336 28.0803L66.6896 17.6119L63.2255 19.6119ZM55.9268 24.4611L65.7138 20.4634L64.2013 16.7604L54.4142 20.7582L55.9268 24.4611ZM46.8272 20.0527C49.4371 20.9457 51.8179 22.3376 53.8552 24.1163L56.4859 21.1031C54.0649 18.9893 51.2322 17.3322 48.1221 16.2681L46.8272 20.0527ZM44.0626 7.96304L45.4931 18.4311L49.4562 17.8896L48.0258 7.42149L44.0626 7.96304ZM46.4618 39.9999C46.4618 43.5686 43.5689 46.4615 40.0002 46.4615V50.4615C45.778 50.4615 50.4618 45.7777 50.4618 39.9999H46.4618ZM40.0002 33.5384C43.5689 33.5384 46.4618 36.4313 46.4618 39.9999H50.4618C50.4618 34.2222 45.778 29.5384 40.0002 29.5384V33.5384ZM33.5387 39.9999C33.5387 36.4313 36.4316 33.5384 40.0002 33.5384V29.5384C34.2225 29.5384 29.5387 34.2222 29.5387 39.9999H33.5387ZM40.0002 46.4615C36.4316 46.4615 33.5387 43.5686 33.5387 39.9999H29.5387C29.5387 45.7777 34.2225 50.4615 40.0002 50.4615V46.4615Z" fill="#0091D0" mask="url(#path-3-inside-1)"/>
    <circle cx="64.5" cy="64.5" r="15.5" fill="#333333"/>
    <path d="M64.5 59V70M64.5 70L60 65.626M64.5 70L69 65.626" stroke="white" stroke-width="2" stroke-linecap="round" stroke-linejoin="round"/>
</svg>
