<svg width="80" height="80" viewBox="0 0 80 80" fill="none" xmlns="http://www.w3.org/2000/svg">
    <path fill-rule="evenodd" clip-rule="evenodd" d="M62.5661 12.652C61.6511 12.8553 61 13.667 61 14.6044V15.1685L28.3384 20.6719C23.5246 21.483 20 25.6513 20 30.5329V45.4671C20 50.3488 23.5246 54.517 28.3384 55.3281L35 56.4506V64.5C35 66.9853 37.0147 69 39.5 69C41.9853 69 44 66.9853 44 64.5V57.967L61 60.8315V61.3957C61 62.3331 61.6511 63.1447 62.5661 63.348L67.5661 64.4592C68.8152 64.7367 70 63.7863 70 62.5068V45C73.866 45 77 41.866 77 38C77 34.134 73.866 31 70 31V13.4932C70 12.2137 68.8152 11.2633 67.5661 11.5409L62.5661 12.652Z" fill="#D9F3FF"/>
    <mask id="path-3-inside-1" fill="white">
        <path fill-rule="evenodd" clip-rule="evenodd" d="M54.5661 12.652C53.6511 12.8553 53 13.667 53 14.6044V15.1685L20.3384 20.6719C15.5246 21.483 12 25.6513 12 30.5329V45.4671C12 50.3488 15.5246 54.517 20.3384 55.3281L27 56.4506V64.5C27 66.9853 29.0147 69 31.5 69C33.9853 69 36 66.9853 36 64.5V57.967L53 60.8315V61.3957C53 62.3331 53.6511 63.1447 54.5661 63.348L59.5661 64.4592C60.8152 64.7367 62 63.7863 62 62.5068V45C65.866 45 69 41.866 69 38C69 34.134 65.866 31 62 31V13.4932C62 12.2137 60.8152 11.2633 59.5661 11.5409L54.5661 12.652Z"/>
    </mask>
    <path d="M54.5661 12.652L54.1323 10.6996V10.6996L54.5661 12.652ZM53 15.1685L53.3323 17.1407L55 16.8597V15.1685H53ZM20.3384 20.6719L20.0061 18.6997L20.0061 18.6997L20.3384 20.6719ZM20.3384 55.3281L20.6708 53.3559L20.3384 55.3281ZM27 56.4506H29V54.7594L27.3323 54.4784L27 56.4506ZM36 57.967L36.3323 55.9948L34 55.6019V57.967H36ZM53 60.8315H55V59.1403L53.3323 58.8593L53 60.8315ZM54.5661 63.348L54.1323 65.3004L54.5661 63.348ZM59.5661 64.4592L59.1323 66.4115L59.5661 64.4592ZM62 45V43H60V45H62ZM62 31H60V33H62V31ZM59.5661 11.5409L59.1323 9.5885L59.5661 11.5409ZM55 14.6044V14.6044L54.1323 10.6996C52.3021 11.1063 51 12.7296 51 14.6044H55ZM55 15.1685V14.6044H51V15.1685H55ZM20.6708 22.6441L53.3323 17.1407L52.6677 13.1963L20.0061 18.6997L20.6708 22.6441ZM14 30.5329C14 26.6276 16.8197 23.293 20.6708 22.6441L20.0061 18.6997C14.2296 19.6731 10 24.6749 10 30.5329H14ZM14 45.4671V30.5329H10V45.4671H14ZM20.6708 53.3559C16.8197 52.707 14 49.3724 14 45.4671H10C10 51.3251 14.2296 56.327 20.0061 57.3003L20.6708 53.3559ZM27.3323 54.4784L20.6708 53.3559L20.0061 57.3003L26.6677 58.4228L27.3323 54.4784ZM29 64.5V56.4506H25V64.5H29ZM31.5 67C30.1193 67 29 65.8807 29 64.5H25C25 68.0899 27.9101 71 31.5 71V67ZM34 64.5C34 65.8807 32.8807 67 31.5 67V71C35.0899 71 38 68.0899 38 64.5H34ZM34 57.967V64.5H38V57.967H34ZM53.3323 58.8593L36.3323 55.9948L35.6677 59.9392L52.6677 62.8037L53.3323 58.8593ZM55 61.3957V60.8315H51V61.3957H55ZM55 61.3957H51C51 63.2705 52.3021 64.8937 54.1323 65.3004L55 61.3957ZM60 62.5068L55 61.3957L54.1323 65.3004L59.1323 66.4115L60 62.5068ZM60 62.5068L59.1323 66.4115C61.6303 66.9667 64 65.0658 64 62.5068H60ZM60 45V62.5068H64V45H60ZM67 38C67 40.7614 64.7614 43 62 43V47C66.9706 47 71 42.9706 71 38H67ZM62 33C64.7614 33 67 35.2386 67 38H71C71 33.0294 66.9706 29 62 29V33ZM60 13.4932V31H64V13.4932H60ZM60 13.4932V13.4932H64C64 10.9343 61.6303 9.03337 59.1323 9.5885L60 13.4932ZM55 14.6044L60 13.4932L59.1323 9.5885L54.1323 10.6996L55 14.6044Z" fill="#0091D0" mask="url(#path-3-inside-1)"/>
    <rect x="20" y="47" width="18" height="2" rx="1" transform="rotate(-90 20 47)" fill="#0091D0"/>
    <rect x="53" y="60" width="44" height="2" rx="1" transform="rotate(-90 53 60)" fill="#0091D0"/>
    <rect x="60" y="60" width="44" height="2" rx="1" transform="rotate(-90 60 60)" fill="#0091D0"/>
    <circle cx="64.5" cy="64.5" r="15.5" transform="rotate(-180 64.5 64.5)" fill="#333333"/>
    <path d="M64.5 70L64.5 59M64.5 59L69 63.374M64.5 59L60 63.374" stroke="white" stroke-width="2" stroke-linecap="round" stroke-linejoin="round"/>
</svg>
