<svg width="80" height="80" viewBox="0 0 80 80" fill="none" xmlns="http://www.w3.org/2000/svg">
    <circle cx="46.5381" cy="21.1538" r="15" fill="#D9F3FF"/>
    <path d="M75.3844 59.5673C75.3844 73.2948 62.2973 73.8462 46.1536 73.8462C30.0099 73.8462 16.9229 73.2948 16.9229 59.5673C16.9229 45.8398 30.0099 40 46.1536 40C62.2973 40 75.3844 45.8398 75.3844 59.5673Z" fill="#D9F3FF"/>
    <circle cx="40.3848" cy="21.1538" r="14" stroke="#0091D0" stroke-width="2" stroke-linecap="round" stroke-linejoin="round" stroke-dasharray="6 6"/>
    <path d="M67.1236 51.0452C67.8551 52.3414 68.4096 53.76 68.7658 55.3055C68.237 55.4111 67.885 55.9193 67.9763 56.4543C68.1437 57.4351 68.2311 58.472 68.2311 59.5673C68.2311 60.6267 68.1493 61.5928 67.9945 62.4741C67.9009 63.0065 68.2472 63.5145 68.772 63.6254C68.4075 65.0818 67.8325 66.3311 67.0702 67.4027C66.6542 67.0741 66.0491 67.1271 65.6971 67.5312C64.5266 68.8749 62.9553 69.8943 61.009 70.6616C60.5032 70.8611 60.2508 71.427 60.4363 71.9347C59.1907 72.3549 57.8366 72.6832 56.3898 72.9396C56.3015 72.4001 55.7953 72.0307 55.2533 72.1127C53.3849 72.3956 51.3614 72.5712 49.2103 72.6792C48.6604 72.7068 48.2366 73.1736 48.2615 73.723C46.9083 73.7776 45.5143 73.8087 44.0873 73.8259C44.0818 73.2746 43.631 72.8315 43.0795 72.8359C42.0687 72.8439 41.0416 72.8462 40.0003 72.8462C38.959 72.8462 37.9319 72.8439 36.9211 72.8359C36.3696 72.8315 35.9188 73.2746 35.9133 73.8259C34.4863 73.8087 33.0923 73.7776 31.7391 73.723C31.764 73.1736 31.3402 72.7068 30.7903 72.6792C28.6392 72.5712 26.6157 72.3956 24.7473 72.1127C24.2053 72.0307 23.6991 72.4001 23.6108 72.9396C22.164 72.6832 20.8099 72.3549 19.5643 71.9347C19.7498 71.427 19.4974 70.8611 18.9916 70.6616C17.0453 69.8943 15.474 68.8749 14.3035 67.5312C13.9515 67.1271 13.3464 67.0741 12.9304 67.4027C12.1681 66.3311 11.5931 65.0818 11.2286 63.6254C11.7534 63.5145 12.0997 63.0065 12.0061 62.4741C11.8513 61.5928 11.7695 60.6267 11.7695 59.5673C11.7695 58.472 11.8569 57.4351 12.0243 56.4543C12.1156 55.9193 11.7636 55.4111 11.2348 55.3055C11.591 53.76 12.1455 52.3414 12.877 51.0452C13.3364 51.3247 13.9379 51.1906 14.2338 50.737C15.3392 49.0428 16.7954 47.5782 18.5543 46.3346C18.9988 46.0203 19.1092 45.4096 18.807 44.9603C20.0515 44.1656 21.416 43.4715 22.8831 42.8743C23.0798 43.3823 23.6486 43.6402 24.1616 43.4509C26.0631 42.7493 28.1366 42.2017 30.3467 41.8038C30.8866 41.7066 31.2467 41.1929 31.1555 40.6532C32.6266 40.4211 34.1481 40.2522 35.7098 40.1443C35.7428 40.6917 36.2112 41.1111 36.7599 41.0826C37.8226 41.0273 38.9038 41 40.0003 41C41.0968 41 42.178 41.0273 43.2407 41.0826C43.7894 41.1111 44.2578 40.6917 44.2908 40.1443C45.8525 40.2522 47.374 40.4211 48.8451 40.6532C48.7539 41.1929 49.114 41.7066 49.6539 41.8038C51.864 42.2017 53.9375 42.7493 55.839 43.4509C56.352 43.6402 56.9207 43.3823 57.1175 42.8743C58.5846 43.4715 59.9491 44.1656 61.1936 44.9603C60.8914 45.4096 61.0018 46.0203 61.4463 46.3346C63.2052 47.5782 64.6614 49.0428 65.7668 50.737C66.0627 51.1906 66.6642 51.3247 67.1236 51.0452Z" stroke="#0091D0" stroke-width="2" stroke-linecap="round" stroke-linejoin="round" stroke-dasharray="6 6"/>
    <circle cx="64.5" cy="64.5" r="15.5" fill="#333333"/>
    <path d="M64.5 59V70M64.5 70L60 65.626M64.5 70L69 65.626" stroke="white" stroke-width="2" stroke-linecap="round" stroke-linejoin="round"/>
</svg>
