<svg width="30" height="30" viewBox="0 0 30 30" fill="none" xmlns="http://www.w3.org/2000/svg">
<g clip-path="url(#clip0_2415_7461)">
<path d="M15 30C23.2843 30 30 23.2843 30 15C30 6.71573 23.2843 0 15 0C6.71573 0 0 6.71573 0 15C0 23.2843 6.71573 30 15 30Z" fill="#FF3D00"/>
<path d="M8 15.0061C8 10.9333 11.12 8.13333 15.41 8.13333C17.75 8.13333 19.7 9.02424 21 10.5515L18.92 12.3333C18.01 11.3151 16.84 10.8061 15.54 10.8061C12.94 10.8061 11.12 12.5879 11.12 15.1333C11.12 17.6788 12.94 19.4606 15.54 19.4606C16.84 19.4606 18.01 18.9515 18.92 17.9333L21 19.7151C19.7 21.2424 17.75 22.1333 15.41 22.1333C11.12 22.0061 8 19.0788 8 15.0061Z" fill="white" stroke="white"/>
</g>
<defs>
<clipPath id="clip0_2415_7461">
<rect width="30" height="30" fill="white"/>
</clipPath>
</defs>
</svg>
